<?xml version="1.0" encoding="UTF-8"?>
<svg version="1.1" xmlns="http://www.w3.org/2000/svg" width="50" height="50">
<path d="M0 0 C0.99 0.99 1.98 1.98 3 3 C-3.93 9.93 -10.86 16.86 -18 24 C-15.78873506 24.2216009 -15.78873506 24.2216009 -13.93701172 22.1640625 C-13.10959473 21.32617188 -12.28217773 20.48828125 -11.4296875 19.625 C-10.53378906 18.72265625 -9.63789063 17.8203125 -8.71484375 16.890625 C-7.76812101 15.9271896 -6.82150784 14.96364652 -5.875 14 C-4.92103198 13.03600383 -3.96661048 12.07245619 -3.01171875 11.109375 C-0.66996825 8.74397045 1.66700503 6.37403548 4 4 C4.99 4.99 5.98 5.98 7 7 C3.89385378 10.28002621 0.76475727 13.53570543 -2.38720703 16.77172852 C-3.4545961 17.87418016 -4.51560195 18.9828513 -5.56982422 20.09790039 C-7.09240197 21.70602429 -8.63705018 23.28988078 -10.1875 24.87109375 C-10.64930664 25.36902939 -11.11111328 25.86696503 -11.58691406 26.37998962 C-15.56470477 30.36235361 -18.60496826 30.73379778 -24 31 C-23.68998388 24.71700667 -22.55420023 21.53081167 -17.87109375 17.1875 C-17.36199966 16.68831055 -16.85290558 16.18912109 -16.3283844 15.67480469 C-14.71388971 14.09919577 -13.07673389 12.54981237 -11.4375 11 C-10.33238629 9.93003354 -9.22885248 8.85843271 -8.12695312 7.78515625 C-5.43586805 5.17085166 -2.72418804 2.57977401 0 0 Z " fill="#ffffff" transform="translate(38,5)"/>
<path d="M0 0 C9.9 0 19.8 0 30 0 C29.67 0.66 29.34 1.32 29 2 C20.09 2 11.18 2 2 2 C2 13.22 2 24.44 2 36 C13.22 36 24.44 36 36 36 C36 27.09 36 18.18 36 9 C36.66 8.67 37.32 8.34 38 8 C38 17.9 38 27.8 38 38 C25.46 38 12.92 38 0 38 C0 25.46 0 12.92 0 0 Z " fill="#ffffff" transform="translate(2,10)"/>
<path d="M0 0 C1.99954746 -0.04254356 4.00041636 -0.04080783 6 0 C7 1 7 1 7.0625 4.0625 C7.041875 5.031875 7.02125 6.00125 7 7 C3 7 3 7 0.75 5 C0.1725 4.34 -0.405 3.68 -1 3 C-0.67 2.01 -0.34 1.02 0 0 Z " fill="#ffffff" transform="translate(41,2)"/>
</svg>
